Coordinates
version=1
nRows=15
nColumns=46
inDegrees=yes

Units are S.I. units (second, meters, Newtons, ...)
Angles are in degrees.

endheader
time	pelvis_tilt	pelvis_list	pelvis_rotation	pelvis_tx	pelvis_ty	pelvis_tz	bb_angle	bb_tx	bb_ty	bb_tz	hip_flexion_r	hip_adduction_r	hip_rotation_r	knee_angle_r	knee_angle_r_beta	ankle_angle_r	subtalar_angle_r	mtp_angle_r	crank_angle_r	hip_flexion_l	hip_adduction_l	hip_rotation_l	knee_angle_l	knee_angle_l_beta	ankle_angle_l	subtalar_angle_l	mtp_angle_l	crank_angle_l	lumbar_extension	lumbar_bending	lumbar_rotation	arm_flex_r	arm_add_r	arm_rot_r	elbow_flex_r	pro_sup_r	wrist_flex_r	wrist_dev_r	arm_flex_l	arm_add_l	arm_rot_l	elbow_flex_l	pro_sup_l	wrist_flex_l	wrist_dev_l
      0.00000000	     -8.15540104	     -3.87459529	      0.65810925	      0.07205287	      1.10271968	     -0.27993118	      0.00000000	      0.50000000	      0.00000000	      0.25000000	     74.03889485	     -4.72203408	     -2.40914065	     89.22901316	      1.55734007	     11.86803237	     -4.89980350	      0.00000000	      0.00000000	     39.27235684	    -10.15287520	     -0.65819074	     68.60459307	      1.19737603	     14.02775045	     -2.91608322	      0.00000000	      0.00000000	    -54.46616835	     -0.00632403	      4.59202483	     88.77149029	    -13.38142211	     42.04691137	     23.61545955	     32.19628534	      0.00000000	      0.00000000	     88.16874613	     -9.09086762	     40.17945489	     29.33734865	     34.60894493	      0.00000000	      0.00000000
      0.00500000	     -8.18542322	     -3.91907528	      0.68460205	      0.07202131	      1.10264852	     -0.27998941	      0.00000000	      0.50000000	      0.00000000	      0.25000000	     74.07111153	     -4.71899417	     -2.45254550	     89.23348290	      1.55741808	     11.83017877	     -4.98171859	      0.00000000	      0.00000000	     39.32870488	    -10.17129537	     -0.60361988	     68.61421459	      1.19754396	     14.01370842	     -2.92522863	      0.00000000	      0.00000000	    -54.43158380	      0.06230508	      4.59722841	     88.79906096	    -13.33450159	     42.27263111	     23.44067976	     32.62618707	      0.00000000	      0.00000000	     88.19038636	     -9.19819585	     40.50717633	     29.27807915	     35.03861312	      0.00000000	      0.00000000
      0.01000000	     -8.14059064	     -3.89846960	      0.66120000	      0.07204698	      1.10268737	     -0.27997362	      0.00000000	      0.50000000	      0.00000000	      0.25000000	     74.03672807	     -4.69131346	     -2.40592528	     89.25774175	      1.55784148	     11.85265673	     -4.96431863	      0.00000000	      0.00000000	     39.26687970	    -10.18267781	     -0.65888103	     68.61466783	      1.19755187	     14.05274925	     -2.87504279	      0.00000000	      0.00000000	    -54.48492973	      0.01540854	      4.57468669	     88.77856347	    -13.37466764	     42.12084675	     23.49179807	     32.94771562	      0.00000000	      0.00000000	     88.15765840	     -9.26041631	     40.34054943	     29.35939846	     35.32485213	      0.00000000	      0.00000000
      0.01500000	     -8.24373773	     -3.94760344	      0.69554055	      0.07206083	      1.10263410	     -0.28003714	      0.00000000	      0.50000000	      0.00000000	      0.25000000	     74.10995902	     -4.68039862	     -2.44150668	     89.23214033	      1.55739465	     11.87429794	     -5.02329358	      0.00000000	      0.00000000	     39.37699208	    -10.14399406	     -0.51749862	     68.59236241	      1.19716257	     14.02534221	     -2.97255842	      0.00000000	      0.00000000	    -54.38625801	      0.09096143	      4.56233412	     88.80806609	    -13.51119365	     43.02450673	     23.39657913	     34.11360966	      0.00000000	      0.00000000	     88.21905475	     -9.66880581	     41.60493399	     29.41635120	     36.44347680	      0.00000000	      0.00000000
      0.02000000	     -7.97118357	     -3.88824497	      0.66761668	      0.07211248	      1.10326721	     -0.28003220	      0.00000000	      0.50000000	      0.00000000	      0.25000000	     73.80901479	     -4.67013751	     -2.36976751	     89.26503778	      1.55796882	     12.00836730	     -4.99326110	      0.00000000	      0.00000000	     38.99013420	    -10.14937161	     -0.62563060	     68.48453718	      1.19528066	     14.19601557	     -2.63054506	      0.00000000	      0.00000000	    -54.74839375	      0.01178996	      4.58744524	     88.75876113	    -13.48448624	     41.45736645	     23.81226975	     34.69826852	      0.00000000	      0.00000000	     88.11826695	     -9.45392734	     40.09232281	     29.83052063	     36.89421194	      0.00000000	      0.00000000
      0.02500000	     -8.25483584	     -3.94241418	      0.70307185	      0.07198581	      1.10275029	     -0.28010907	      0.00000000	      0.50000000	      0.00000000	      0.25000000	     74.13179855	     -4.67720655	     -2.40519223	     89.25086099	      1.55772138	     11.90325223	     -5.09454025	      0.00000000	      0.00000000	     39.38361440	    -10.12093698	     -0.50096941	     68.56577304	      1.19669849	     14.01132827	     -2.97126550	      0.00000000	      0.00000000	    -54.36216660	      0.10167305	      4.58231946	     88.77655450	    -13.25890949	     41.75303938	     23.15895972	     34.77242933	      0.00000000	      0.00000000	     88.19552259	     -9.25173039	     40.38255747	     28.93906751	     36.92246869	      0.00000000	      0.00000000
      0.03000000	     -8.24110633	     -3.96383489	      0.71798985	      0.07199767	      1.10278638	     -0.28029019	      0.00000000	      0.50000000	      0.00000000	      0.25000000	     74.10877209	     -4.69296665	     -2.41834077	     89.24115773	      1.55755203	     11.91124977	     -5.08977170	      0.00000000	      0.00000000	     39.36886445	    -10.11723208	     -0.47581669	     68.56439563	      1.19667445	     14.06932825	     -2.94137116	      0.00000000	      0.00000000	    -54.38196085	      0.13846172	      4.60064245	     88.77461713	    -13.22123940	     41.41548835	     23.12538115	     35.06036557	      0.00000000	      0.00000000	     88.15462977	     -9.19763340	     40.08319407	     28.96091905	     37.17637198	      0.00000000	      0.00000000
      0.03500000	     -8.27136809	     -3.97932290	      0.73324097	      0.07197399	      1.10272669	     -0.28030841	      0.00000000	      0.50000000	      0.00000000	      0.25000000	     74.14496215	     -4.68255641	     -2.42065435	     89.24003991	      1.55753252	     11.87975724	     -5.12682961	      0.00000000	      0.00000000	     39.42912887	    -10.11539789	     -0.44591456	     68.59617881	      1.19722917	     14.00209254	     -2.98054103	      0.00000000	      0.00000000	    -54.34528455	      0.15434715	      4.55803301	     88.78253837	    -13.17116558	     41.51836167	     23.00026130	     35.28982971	      0.00000000	      0.00000000	     88.16430084	     -9.23405150	     40.14981354	     28.88482950	     37.38507486	      0.00000000	      0.00000000
      0.04000000	     -8.27790333	     -3.98629894	      0.75038689	      0.07195711	      1.10266987	     -0.28038171	      0.00000000	      0.50000000	      0.00000000	      0.25000000	     74.15677287	     -4.69482874	     -2.42449568	     89.25098781	      1.55772360	     11.84880215	     -5.14881991	      0.00000000	      0.00000000	     39.46578796	    -10.11343326	     -0.43927312	     68.63606652	      1.19792535	     13.95556990	     -2.99344980	      0.00000000	      0.00000000	    -54.33422305	      0.17802067	      4.57121194	     88.79867337	    -13.23184328	     41.60487944	     22.96943747	     35.45491461	      0.00000000	      0.00000000	     88.18193706	     -9.26782580	     40.29657195	     28.81798130	     37.56172617	      0.00000000	      0.00000000
      0.04500000	     -8.28591321	     -3.98960352	      0.75981081	      0.07196285	      1.10268778	     -0.28040364	      0.00000000	      0.50000000	      0.00000000	      0.25000000	     74.15398290	     -4.68905934	     -2.42163840	     89.23784271	      1.55749417	     11.86383169	     -5.19384312	      0.00000000	      0.00000000	     39.46827881	    -10.10622511	     -0.42181407	     68.61862228	      1.19762089	     13.97011427	     -3.02058805	      0.00000000	      0.00000000	    -54.32558780	      0.26230113	      4.61421717	     88.81175624	    -13.16783312	     41.56411575	     22.95338260	     35.50546880	      0.00000000	      0.00000000	     88.14769726	     -9.30568940	     40.31728487	     28.83568733	     37.67169082	      0.00000000	      0.00000000
      0.05000000	     -8.28880937	     -3.97661297	      0.76980225	      0.07190626	      1.10259216	     -0.28042211	      0.00000000	      0.50000000	      0.00000000	      0.25000000	     74.17930035	     -4.67025098	     -2.35658160	     89.26656087	      1.55799540	     11.82441403	     -5.23112853	      0.00000000	      0.00000000	     39.50525991	    -10.07166562	     -0.38517956	     68.67278933	      1.19856628	     13.89501844	     -3.00848454	      0.00000000	      0.00000000	    -54.32254616	      0.30863187	      4.64002967	     88.82704714	    -13.12505630	     41.53018478	     22.90028789	     35.73232656	      0.00000000	      0.00000000	     88.14209167	     -9.40425387	     40.31870617	     28.86400854	     37.91135491	      0.00000000	      0.00000000
      0.05500000	     -8.28256397	     -3.96064543	      0.75656124	      0.07199330	      1.10271499	     -0.28040936	      0.00000000	      0.50000000	      0.00000000	      0.25000000	     74.14488398	     -4.67106411	     -2.36178859	     89.22940087	      1.55734683	     11.89063273	     -5.19287419	      0.00000000	      0.00000000	     39.46477238	    -10.08533126	     -0.45076129	     68.63090668	      1.19783529	     13.96766644	     -3.00114544	      0.00000000	      0.00000000	    -54.33677958	      0.23231573	      4.57028309	     88.80759675	    -13.11523531	     41.39154651	     22.89447838	     35.85904606	      0.00000000	      0.00000000	     88.14116969	     -9.33684129	     40.25080174	     28.84098473	     38.04446968	      0.00000000	      0.00000000
      0.06000000	     -8.09884690	     -4.01289674	      0.81710643	      0.07203036	      1.10310975	     -0.28054714	      0.00000000	      0.50000000	      0.00000000	      0.25000000	     73.88610646	     -4.69739911	     -2.43645674	     89.18173957	      1.55651499	     11.96272953	     -5.21423821	      0.00000000	      0.00000000	     39.26167892	    -10.10712243	     -0.37356683	     68.60911905	      1.19745502	     14.08002255	     -2.77841651	      0.00000000	      0.00000000	    -54.61966435	      0.31829007	      4.65481022	     88.78674072	    -13.25785431	     40.66967655	     23.54870075	     35.98688273	      0.00000000	      0.00000000	     88.07589168	     -9.36499768	     39.60148981	     29.48578072	     38.16589835	      0.00000000	      0.00000000
      0.06500000	     -8.29020346	     -3.96724245	      0.78734716	      0.07198664	      1.10269327	     -0.28044874	      0.00000000	      0.50000000	      0.00000000	      0.25000000	     74.13526749	     -4.67118222	     -2.36181499	     89.20334861	      1.55689214	     11.88685078	     -5.26357633	      0.00000000	      0.00000000	     39.50125470	    -10.07065751	     -0.41503101	     68.66203968	      1.19837866	     13.94995901	     -3.03215080	      0.00000000	      0.00000000	    -54.34299211	      0.27554530	      4.46417911	     88.83802000	    -13.17637202	     42.21697372	     22.84813844	     36.48436897	      0.00000000	      0.00000000	     88.16351867	     -9.87513301	     41.36366311	     29.18598259	     38.64836332	      0.00000000	      0.00000000
      0.07000000	     -8.29803926	     -3.92089390	      0.75173896	      0.07202312	      1.10266406	     -0.28045394	      0.00000000	      0.50000000	      0.00000000	      0.25000000	     74.15550236	     -4.66332550	     -2.31473893	     89.20825098	      1.55697770	     11.90091759	     -5.24716915	      0.00000000	      0.00000000	     39.50415290	    -10.04440046	     -0.46079407	     68.69922169	      1.19902761	     13.95240050	     -2.97682428	      0.00000000	      0.00000000	    -54.32401992	      0.12752653	      4.46542045	     88.80206966	    -13.20354431	     41.75124596	     22.86815348	     36.55883608	      0.00000000	      0.00000000	     88.16596329	     -9.61588678	     40.72238384	     29.02063788	     38.65809810	      0.00000000	      0.00000000
